<?xml version="1.0" standalone="no"?>
<!DOCTYPE svg PUBLIC "-//W3C//DTD SVG 20010904//EN"
        "http://www.w3.org/TR/2001/REC-SVG-20010904/DTD/svg10.dtd">
<svg version="1.0" xmlns="http://www.w3.org/2000/svg"
     width="512.000000pt" height="512.000000pt" viewBox="0 0 512.000000 512.000000"
     preserveAspectRatio="xMidYMid meet">
    <metadata>
        Created by potrace 1.11, written by Peter Selinger 2001-2013
    </metadata>
    <g transform="translate(0.000000,512.000000) scale(0.100000,-0.100000)"
       fill="#ffffff" stroke="none">
        <path d="M2410 4859 c-251 -13 -478 -63 -725 -161 -101 -40 -357 -173 -363
-189 -2 -5 -9 -9 -15 -9 -16 0 -178 -121 -264 -195 -430 -374 -705 -884 -778
-1441 -20 -151 -20 -457 0 -611 25 -190 83 -410 152 -578 56 -135 199 -394
252 -457 6 -7 39 -49 73 -93 88 -114 295 -317 418 -408 58 -42 110 -81 115
-85 35 -27 179 -107 285 -159 200 -97 443 -170 685 -205 134 -19 512 -16 650
5 333 53 668 182 937 363 189 128 302 227 457 402 605 681 744 1688 347 2515
-40 83 -65 128 -149 269 -48 81 -184 246 -292 354 -206 208 -373 328 -630 454
-367 180 -722 250 -1155 229z m345 -230 c130 -15 276 -46 390 -84 225 -75 408
-172 605 -320 251 -190 410 -364 596 -650 126 -194 241 -516 274 -767 39 -304
6 -600 -101 -903 -135 -383 -421 -754 -789 -1024 -174 -127 -308 -203 -473
-265 -192 -73 -425 -126 -555 -126 l-62 0 2 408 3 407 493 3 c270 1 492 5 492
9 0 8 57 283 96 460 13 62 24 115 24 118 0 3 -198 5 -440 5 -242 0 -440 2
-440 4 0 3 27 31 61 63 124 117 215 256 301 453 50 114 66 162 127 360 48 158
111 625 111 824 l0 96 -350 0 c-192 0 -350 2 -350 4 0 3 13 25 30 49 91 136
69 323 -52 432 -129 116 -323 97 -432 -42 -83 -105 -90 -279 -14 -390 15 -23
28 -44 28 -47 0 -3 -158 -6 -352 -6 l-351 0 6 -187 c9 -249 37 -467 87 -669
46 -188 55 -214 117 -372 38 -97 152 -317 172 -332 4 -3 23 -27 43 -55 20 -27
66 -78 102 -113 36 -35 66 -66 66 -68 0 -2 -201 -4 -446 -4 -245 0 -443 -4
-440 -8 3 -5 17 -62 32 -128 14 -65 32 -146 40 -179 8 -33 24 -108 36 -167
l22 -108 496 -2 495 -3 3 -407 2 -408 -53 0 c-112 0 -414 68 -532 119 -11 5
-36 15 -55 22 -204 73 -536 303 -726 502 -178 186 -285 333 -388 528 -77 148
-127 275 -166 424 -49 190 -55 245 -55 480 0 202 3 231 28 352 39 185 86 325
166 488 76 154 139 253 257 401 161 203 253 290 489 462 267 193 600 323 930
361 104 12 298 12 400 0z m-864 -1041 c5 -62 8 -113 13 -235 9 -181 57 -567
86 -688 59 -240 99 -361 174 -529 50 -110 8 -74 -97 84 -73 111 -141 252 -190
400 -68 202 -76 236 -122 510 -18 104 -47 448 -39 461 9 15 174 11 175 -3z
m250 -10 c0 -13 2 -50 4 -83 2 -33 6 -140 9 -239 11 -294 36 -572 66 -726 5
-25 19 -99 30 -165 12 -66 34 -162 50 -212 38 -129 17 -121 -53 20 -61 123
-138 350 -162 480 -68 367 -80 458 -90 662 -3 66 -8 154 -10 196 -3 42 -2 79
2 83 3 3 39 6 80 6 69 0 73 -1 74 -22z m317 -775 c1 -436 -2 -793 -6 -793 -30
0 -119 336 -151 575 -28 204 -58 572 -66 813 l-7 203 113 -3 114 -3 3 -792z
m399 567 c-10 -330 -31 -551 -91 -940 -24 -152 -92 -390 -115 -398 -8 -3 -11
194 -11 776 0 428 3 782 7 785 3 4 54 7 111 7 l105 0 -6 -230z m249 108 c-28
-552 -96 -925 -224 -1228 -38 -90 -102 -204 -109 -196 -3 3 9 58 26 123 83
322 130 711 147 1221 l7 202 80 0 79 0 -6 -122z m266 12 c-6 -259 -71 -637
-146 -845 -14 -38 -32 -90 -41 -115 -48 -137 -241 -460 -275 -460 -15 0 -14 4
31 98 125 265 229 759 244 1157 3 83 8 178 11 213 l6 63 86 -3 87 -3 -3 -105z
m-1668 -1712 c22 -101 64 -363 60 -370 -9 -14 -224 -10 -229 5 -12 29 -81 387
-77 392 3 3 58 5 122 5 l118 0 6 -32z m410 -10 c6 -44 20 -181 31 -300 l7 -68
-161 0 c-89 0 -161 2 -161 4 0 3 -9 51 -20 108 -10 57 -24 140 -30 186 -6 46
-14 90 -17 98 -4 12 22 14 170 14 l176 0 5 -42z m341 -163 l0 -200 -122 -3
-122 -3 -5 33 c-10 57 -33 363 -29 371 3 4 66 6 141 5 l137 -3 0 -200z m476
201 c4 -5 -12 -195 -28 -336 l-8 -65 -125 0 -125 0 -3 190 c-1 104 0 195 2
202 4 10 41 13 144 13 76 0 141 -2 143 -4z m413 -16 c-1 -8 -9 -55 -18 -105
-9 -49 -25 -133 -34 -185 l-18 -95 -158 -3 -158 -3 6 53 c3 29 11 116 17 193
6 77 13 146 15 153 3 10 43 12 176 10 147 -3 173 -5 172 -18z m296 9 c0 -6
-11 -58 -24 -117 -14 -59 -30 -138 -37 -177 -18 -109 -13 -105 -134 -105 -95
0 -105 2 -105 18 0 10 11 74 24 143 13 68 27 147 31 174 4 28 8 56 10 63 6 16
235 18 235 1z"/>
    </g>
</svg>
