<?xml version="1.0" encoding="UTF-8" standalone="no"?>
<!-- Created with Inkscape (http://www.inkscape.org/) -->

<svg
   xmlns:dc="http://purl.org/dc/elements/1.1/"
   xmlns:cc="http://creativecommons.org/ns#"
   xmlns:rdf="http://www.w3.org/1999/02/22-rdf-syntax-ns#"
   xmlns:svg="http://www.w3.org/2000/svg"
   xmlns="http://www.w3.org/2000/svg"
   version="1.1"
   width="512"
   height="512"
   id="svg2">
  <defs
     id="defs4">
    <clipPath
       id="clipPath3145">
      <path
         d="M 0,800 800,800 800,0 0,0 0,800 z"
         id="path3147" />
    </clipPath>
    <clipPath
       id="clipPath3001">
      <path
         d="M 0,800 800,800 800,0 0,0 0,800 z"
         id="path3003" />
    </clipPath>
    <clipPath
       id="clipPath3145-3">
      <path
         d="M 0,800 800,800 800,0 0,0 0,800 z"
         id="path3147-9" />
    </clipPath>
  </defs>
  <metadata
     id="metadata7">
    <rdf:RDF>
      <cc:Work
         rdf:about="">
        <dc:format>image/svg+xml</dc:format>
        <dc:type
           rdf:resource="http://purl.org/dc/dcmitype/StillImage" />
        <dc:title></dc:title>
      </cc:Work>
    </rdf:RDF>
  </metadata>
  <g
     transform="translate(0,-540.36218)"
     id="layer1">
    <g
       transform="matrix(1.25,0,0,-1.25,-125.56313,1033.1853)"
       id="g2993">
      <g
         transform="matrix(0.60267112,0,0,0.60267112,457.08174,329.16429)"
         id="g3133">
        <path
           d="m 0,0 -6.165,-70.797 67.068,-23.495 -28.818,-64.958 55.805,-43.999 -48.349,-52.082 38.495,-59.735 -62.64,-33.561 17.013,-68.998 -70.143,-11.403 -6.312,-70.784 -70.046,11.991 -28.953,-64.899 -62.357,34.084 -48.457,-51.981 -47.911,52.485 -62.71,-33.431 -28.274,65.198 -70.167,-11.258 -5.572,70.846 -70.02,12.135 17.733,68.816 -62.286,34.214 39.118,59.329 -47.803,52.585 56.262,43.413 -28.138,65.256 67.31,22.793 -5.425,70.857 71.064,-0.297 17.876,68.779 67.117,-23.356 39.24,59.248 55.897,-43.883 56.352,43.297 38.619,-59.655 L -88.22,69.407 -71.063,0.445 0,0 z"
           id="path3135"
           style="fill:#009ee2;fill-opacity:1;fill-rule:nonzero;stroke:none" />
      </g>
      <g
         transform="matrix(0.60267112,0,0,0.60267112,295.04788,341.69171)"
         id="g3137" />
      <g
         transform="matrix(0.60267112,0,0,0.60267112,65.666314,-65.430677)"
         id="g3141">
        <g
           clip-path="url(#clipPath3145-3)"
           id="g3143">
          <g
             transform="translate(461.1839,486.1063)"
             id="g3149">
            <path
               d="m 0,0 c 21.618,30.445 37.003,71.268 42,103.282 l 54.389,0 C 86.241,71.708 58.41,7.085 0,0 m -12.073,-161.664 0,-66.777 -99.069,0 0,66.777 c 0,0 99.069,0 99.069,0 m -211.61,264.946 54.36,0 c 4.998,-32.005 20.393,-72.828 42.02,-103.282 -58.448,7.094 -86.26,71.727 -96.38,103.282 m 267.234,14.246 c 0.115,2.087 0.259,4.194 0.259,6.147 l -214.923,0 c 0,-1.953 0.134,-4.06 0.249,-6.147 l -71.516,0 c 0,0 27.017,-132.597 125.589,-132.597 0.498,0 1.034,0.048 1.561,0.057 5.629,-6.232 11.546,-11.766 17.749,-16.16 -4.365,-0.087 -7.879,-3.581 -7.879,-7.937 0,-4.414 3.59,-7.994 7.985,-7.994 l 10.54,0 -24.097,-101.397 -17.903,0 0,-96.006 135.987,0 0,96.006 -17.942,0 -24.107,101.397 10.57,0 c 4.385,0 7.975,3.58 7.975,7.994 0,4.394 -3.581,7.984 -7.975,7.984 l -5.448,0 c 6.176,4.385 12.063,9.9 17.693,16.113 0.507,-0.009 1.043,-0.057 1.541,-0.057 98.582,0 125.628,132.597 125.628,132.597 0,0 -71.536,0 -71.536,0"
               id="path3151"
               style="fill:#ffc400;fill-opacity:1;fill-rule:nonzero;stroke:none" />
          </g>
          <g
             transform="translate(237.5012,589.3887)"
             id="g3153">
            <path
               d="M 0,0 54.36,0 C 59.358,-32.005 74.752,-72.828 96.38,-103.282 37.931,-96.188 10.12,-31.555 0,0 m 94.848,-251.782 0,-96.006 64.367,0 0,16.065 -46.675,0 0,66.777 46.675,0 0,285.338 -106.645,0 c 0,-1.953 0.134,-4.059 0.249,-6.146 l -71.517,0 c 0,0 27.018,-132.598 125.59,-132.598 0.498,0 1.034,0.048 1.56,0.058 5.63,-6.233 11.546,-11.766 17.75,-16.161 -4.366,-0.086 -7.879,-3.58 -7.879,-7.936 0,-4.414 3.59,-7.995 7.984,-7.995 l 10.541,0 -24.097,-101.396 -17.903,0 z"
               id="path3155"
               style="fill:#ffe400;fill-opacity:1;fill-rule:nonzero;stroke:none" />
          </g>
          <g
             transform="translate(237.5012,589.3887)"
             id="g3157">
            <path
               d="M 0,0 54.36,0 C 59.358,-32.005 74.752,-72.828 96.38,-103.282 37.931,-96.188 10.12,-31.555 0,0 m 112.54,-331.723 0,66.777 3.691,0 c -0.13,0.605 -0.196,1.269 -0.034,1.97 6.313,27.36 11.042,48.642 16.92,75.092 3.818,17.183 5.94,29.063 8.698,40.518 -6.152,-0.636 -17.052,-2.952 -17.608,4.455 -0.636,8.486 8.489,7.171 8.91,7.213 -7.213,6.576 -24.608,26.093 -44.411,65.977 -8.334,16.787 -20.774,61.066 -22.995,90.113 l -13.141,0 c 0,-1.953 0.134,-4.059 0.249,-6.146 l -71.517,0 c 0,0 27.018,-132.598 125.59,-132.598 0.498,0 1.034,0.048 1.56,0.058 5.63,-6.233 11.546,-11.766 17.75,-16.161 -4.366,-0.086 -7.879,-3.58 -7.879,-7.936 0,-4.414 3.59,-7.995 7.984,-7.995 l 10.541,0 -24.097,-101.396 -17.903,0 0,-96.006 64.367,0 0,16.065 -46.675,0 z"
               id="path3159"
               style="fill:#ffcf00;fill-opacity:1;fill-rule:nonzero;stroke:none" />
          </g>
          <g
             transform="translate(363.0364,324.4427)"
             id="g3161">
            <path
               d="M 0,0 4.866,0 C 6.403,9.166 6.487,18.476 7.445,27.735 7.885,31.998 8.636,36.2 9.479,40.384 5.824,27.052 2.419,13.658 0,0"
               id="path3163"
               style="fill:#ffe400;fill-opacity:1;fill-rule:nonzero;stroke:none" />
          </g>
          <g
             transform="translate(341.6907,609.7809)"
             id="g3165">
            <path
               d="m 0,0 c -1.004,-28.418 1.457,-51.355 12.846,-83.188 17.354,-48.506 35.174,-66.326 35.174,-77.994 0,-29.59 -9.992,-106.461 -12.137,-124.156 l 19.143,0 L 55.026,0 0,0 z"
               id="path3167"
               style="fill:#ffcf00;fill-opacity:1;fill-rule:nonzero;stroke:none" />
          </g>
          <path
             d="m 307.84,242.609 179.404,0 0,-23.494 -179.404,0 0,23.494 z"
             id="path3169"
             style="fill:#001a36;fill-opacity:1;fill-rule:nonzero;stroke:none" />
          <path
             d="m 307.84,242.609 88.723,0 0,-23.494 -88.723,0 0,23.494 z"
             id="path3171"
             style="fill:#324b60;fill-opacity:1;fill-rule:nonzero;stroke:none" />
          <g
             transform="translate(290.3199,603.6345)"
             id="g3173">
            <path
               d="m 0,0 -71.516,0 c 0,0 8.048,-40.779 33.483,-78.596 25.434,-37.816 55.173,-47.679 60.071,-49.028 23.092,-6.358 33.596,-4.916 33.596,-4.916 0,0 -30.082,0.733 -59.699,22.988 -22.325,16.775 -39.156,44.51 -49.53,70.279 -8.893,22.088 -11.881,35.306 -11.881,35.306 L 0.285,-4.134 0,0 z"
               id="path3175"
               style="fill:#ffe400;fill-opacity:1;fill-rule:nonzero;stroke:none" />
          </g>
          <g
             transform="translate(504.7352,603.6345)"
             id="g3177">
            <path
               d="m 0,0 71.536,0 c 0,0 -9.906,-48.811 -40.025,-87.297 -26.448,-33.794 -51.203,-40.494 -66.932,-43.841 -15.729,-3.346 -20.212,-1.402 -20.212,-1.402 0,0 12.349,0.393 24.395,3.912 14.892,4.351 40.159,16.733 62.916,49.195 26.001,37.09 30.789,73.626 30.789,73.626 L -0.951,-5.64 0,0 z"
               id="path3179"
               style="fill:#ffe400;fill-opacity:1;fill-rule:nonzero;stroke:none" />
          </g>
          <g
             transform="translate(448.7811,324.2569)"
             id="g3181">
            <path
               d="m 0,0 -104.058,2.313 5.501,-67.925 0.139,-0.695 L 0,0 z"
               id="path3183"
               style="fill:#ffe400;fill-opacity:1;fill-rule:nonzero;stroke:none" />
          </g>
          <path
             d="m 449.111,324.443 -99.07,0 0,-66.777 99.07,0 0,66.777 z"
             id="path3185"
             style="fill:#f19000;fill-opacity:1;fill-rule:nonzero;stroke:none" />
          <path
             d="m 447.631,319.837 -93.477,0 0,-60.527 93.477,0 0,60.527 z"
             id="path3187"
             style="fill:#f7b033;fill-opacity:1;fill-rule:nonzero;stroke:none" />
          <g
             transform="translate(289.0329,603.9489)"
             id="g3189">
            <path
               d="m 0,0 c 0,0 10.631,0.839 16.506,7.554 5.908,6.752 7.414,15.247 7.414,15.247 0,0 1.818,-10.072 8.952,-15.527 C 39.233,2.41 48.399,0.42 48.399,0.42 c 0,0 -9.932,-1.539 -15.527,-7.134 -5.595,-5.596 -8.533,-15.947 -8.533,-15.947 0,0 -3.776,22.381 -24.339,22.661"
               id="path3191"
               style="fill:#ffffff;fill-opacity:1;fill-rule:nonzero;stroke:none" />
          </g>
        </g>
      </g>
    </g>
  </g>
</svg>
